<?xml version="1.0" encoding="UTF-8"?>
<svg id="Capa_2" data-name="Capa 2" xmlns="http://www.w3.org/2000/svg" viewBox="0 0 786.22 361.55">
  <defs>
    <style>
      .cls-1 {
        fill: #396847;
      }

      .cls-2 {
        fill: #ba6b32;
      }

      .cls-3 {
        fill: #36454c;
      }
    </style>
  </defs>
  <g id="Capa_1-2" data-name="Capa 1">
    <g>
      <g>
        <path class="cls-1" d="M777.7,7.67c-1.04,1.38-3.26,1.54-4.9,4.61-6.36,11.92,6.55,28.37,10.23,40.16,5.08,16.27,5.21,33.65-8.02,46.04s-26.11,17.04-36.83,34.17c-12.3,19.65-12.92,54.66-31.68,68.32-3.28,2.39-12.94,4.63-13.58,5.66-1.45,2.32-5,19.69-6.89,24.86-9.37,25.56-26.37,50.35-47.55,67.45-14.25,11.51-20.37,15.26-38.98,17.02-6.03.57-12.43.69-18.49,1,.31-1.83,2.05-1.68,3.36-2.13,5.76-1.95,11.87-3.05,17.62-5.38,42.64-17.29,72.99-60.91,80.98-105.43-20.06-6.18-20.79-29.89-19.95-47.54,1.06-22.29,3.31-35.76-5.25-57.77-7.17-18.44-25.88-34.65-11.6-56.07C667.45,10.73,739.54,9.77,773.65.02c3.72-.38,6.31,4.66,4.05,7.65ZM762,12.98c-19.77,3.33-40.1,5.97-59.63,10.86-19.12,4.78-61.1,17.08-49.26,44.52,5.78,13.4,28.93,20.48,39.88,29.61,1.78-9.54,8.26-38.5,19.6-39.98,7.54-.98,9.88,6.18,10.45,12.44,1.13,12.43-2.57,26.38-5.04,38.53,30.98-7.27,68.09-10.84,55.72-53.21-4.12-14.12-16.35-27.29-11.72-42.78ZM707.99,111.97c1.32-14.41,6.3-28.35,4.99-42.99l-4.71,9.77c-1.07,9.96-13.81,27.98-.28,33.22ZM683.99,193.97c-2.1-15.09-9.47-28.73-7.87-44.37,1.41-13.84,10.94-24.48,21.82-32.11.13-1.43-8.32-9.55-10.03-10.93-1.93-1.55-20.06-13.46-20.91-12.58,1.26,7.08,4.46,13.66,5.72,20.77,3.82,21.53-1.94,40.52.38,60.62.69,5.95,4.53,16.77,10.89,18.6ZM739,114.99c-16.75,2.5-40.5,8.16-49.18,24.31-9.73,18.1,2.68,36.98,4.19,55.68,6.61-.31,11.03-6.05,14.16-11.33,8.23-13.9,9.8-32.44,16.66-47.34,3.71-8.06,8.91-14.34,14.17-21.32Z"/>
        <path class="cls-1" d="M685.42,255.4c17.01-20.04,50.54-41.35,77.23-43.34,13.99-1.04,1.58,19.19-1.85,25.22-13.79,24.29-34.19,41.11-59.45,52.55-5.61,2.54-33,13.53-37.17,12.48s-3.8-3.95-2.91-7.57c2.12-8.65,17.89-31.97,24.15-39.34Z"/>
      </g>
      <path class="cls-2" d="M0,334.97c39.38-27.58,87.15-47.73,134.18-58.31,116.61-26.22,192.77,6.69,302,32.64,112.52,26.73,215.43,25.08,315.51-36.13,8.94-5.46,17.54-11.48,26.3-17.19.46,1.96-1.01,2.37-2.08,3.41-104.6,100.95-221.97,120.78-361.73,86.91-94.65-22.94-167.25-52.2-268.67-45.31-50.19,3.41-98.81,16.09-145.51,33.98Z"/>
      <g>
        <path class="cls-3" d="M64,284.98V70.98h114.5c9.21,0,26.38,6.61,34.23,11.77,31.03,20.41,30.31,69.49-.71,89.73,29.33,13.51,40.22,51.49,27.16,80.18-1.05,2.3-2.1,5.87-4.67,6.33-47.44-2.39-92.26,4.89-137.29,18.71-3.1.95-17.71,7.29-18.71,7.29h-14.5ZM104,158.98h64.5c1.86,0,11.51-3.32,13.55-4.45,18.39-10.16,16.21-39-3.51-46.59-1.51-.58-10.04-2.96-11.04-2.96h-63.5v54ZM104,249.98h70.5c2.88,0,13.12-3.45,16.04-4.96,17.21-8.93,16.8-36.15,1.35-46.42-5.77-3.83-18.78-6.61-25.39-6.61h-62.5v58Z"/>
        <path class="cls-3" d="M567.8,67.27c20.79-1.24,64.49,7,77.64,24.77,4.58,6.18,9.91,26.61,10.55,34.45,2.06,25.13-8.95,53.98,9.51,75.49,6.2,7.24,9.29,3.4,5.97,14.95-11.9,41.37-38.58,67.51-82.97,71.03-155.13,12.3-161.37-212.29-20.69-220.69ZM564.78,105.26c-75.9,9.11-76.68,139.18,4.74,145.7,98.71,7.91,96.48-157.85-4.74-145.7Z"/>
        <path class="cls-3" d="M296.35,257.63c-47.56-46.3-40.42-133.92,14.33-171.47,42.94-29.44,110.3-25.41,143.24,17.18l-25.43,26.62c-32.79-39.12-97.41-32.49-116.25,16.77-20.85,54.52,16.15,115.33,77.8,102.8,16.87-3.43,27.19-13.4,39.31-24.48l24.17,23.95c1.17,2.52-3.15,6.8-5.02,8.99-14.07,16.54-37.54,27.29-59.01,29.07l-80.53-19.56c-4.16-2.87-9.05-6.39-12.63-9.87Z"/>
      </g>
    </g>
  </g>
</svg>