<?xml version="1.0" encoding="UTF-8"?>
<svg id="Capa_2" data-name="Capa 2" xmlns="http://www.w3.org/2000/svg" viewBox="0 0 3005.99 1253">
  <defs>
    <style>
      .cls-1 {
        fill: #f28b35;
      }

      .cls-2 {
        fill: #08a75a;
      }
    </style>
  </defs>
  <g id="Capa_1-2" data-name="Capa 1">
    <g>
      <path class="cls-2" d="M264.96,1048.56l-16.95-4.53c54.25-11.95,67.92-94.01,9.43-111.94-29.23-8.96-69.23.45-100.98-1.02-4.39-.2-22.82-4.19-25.03-1.11-6.6,9.17,25.85,10.21,27.14,12,4.63,58.01,1.5,116.4,2.47,174.59-2.18,10.64-.15,22.25-2.04,32.96-.22,1.22-.31,1.93-1.65,2.35-4.4,1.38-25.84,1.54-26.42,7.67-.77,8.1,17.83,2.81,22.58,2.49,35.71-2.45,78.44,9.53,110.87-6.13,44.31-21.4,50.57-89.09.58-107.33ZM185.16,942.69c.83-2.46,15.42-5.05,18.61-5.39,41.02-4.3,72.47,18.61,68.1,62.1-4.4,43.83-51.96,45.93-86.38,43.62l-2.36-1.64,2.03-98.69ZM272.75,1114.26c-7.12,40.59-53.94,47.15-87.29,36.79-1.95-32.63-3.17-65.41-2.02-98.1.29-.45.72-.64,1.2-.8,2.81-.93,25.37-.47,29.9-.18,37.79,2.4,65.5,20.68,58.21,62.29Z"/>
      <path class="cls-2" d="M1341.59,914.01c-.56-1.14-1.39-3.3-3.01-2.94-5.2,1.15-7.8,20.98-7.58,25.96-1.03,1.04-15.6-5.18-18.48-6.02-105.18-30.72-165.39,70.91-139.02,164,16.06,56.69,75.21,90.08,131.17,65.17,7.51-3.34,37.38-24.02,35.19-32.46-1.88-7.26-8.53,2.71-10.35,4.34-25.75,23.01-56.46,28.21-87.21,10.14-54.03-31.75-76.29-146.42-25.88-188.76,33.47-28.12,81.86-17.03,110.38,12.28,1.71,14.49,1.47,30.29,4.5,44.5,1.25,5.84,4.46,15.99,8.66,5.24-2.02-17.92-2.07-35.95-2-53.98l3.63-47.47Z"/>
      <path class="cls-2" d="M1683.02,1043.5c-21.64-5.71-37.59,7.48-52.02,21.52v-21.5c0-1.64-2.56-3.47-4.33-3.24-2.5.33-11.9,5.68-15.9,7.01-6.33,2.12-16.44,2.99-21.52,5.41-2.77,1.32-1.9,3.94-1.26,6.31h22c-.74,4.31.82,8.4,1.04,12.46,2.22,39.89,1.16,88.29-.04,128.53-.14,4.58-.58,23.84-2.15,26.34-2.8,4.45-24.75,1.21-21.71,12.53,1.61,2.58,19.38-.77,23.32-.92,10.82-.4,23.26-.39,34.09,0,3.08.11,27.81,5.41,21.99-3.99-2.64-4.27-32.41-5.46-33.4-7.11-.55-8.9-1.8-17.96-2.13-26.86-.57-15.27.42-30.71,0-45.99,5.18,2.25,8.91,5.89,14.31,8.17,68.05,28.81,91-104.62,37.7-118.69ZM1678.64,1151.65c-13.96,13.79-39.11,4.41-47.43-11.35v-63.58c18.04-26.83,47.97-27.63,56.49,7.09,4.21,17.14,4.36,54.59-9.06,67.84Z"/>
      <path class="cls-2" d="M509.95,1151.56c-3.06-2.22-1.74-27.81-1.91-33.08-1.3-40.91-.25-81.78-.04-122.45.03-6.21-.04-13.19,0-19,.17-26.38,2.18-58.86.03-84.53-.66-7.95-1.7-10.66-10.3-9.22-6.42,1.07-32.28,16.11-33.5,22.44-.81,4.23-.9,4.72,3.27,4.33,6.9-.63,16.96-13.79,18.48,2.49-1.2,71.65,2.86,143.43-.03,214.92-.19,4.69,1.02,19.6-.45,22.55-1.59,3.2-28.88,4.57-21.53,12.51,2.55,2.75,16.01-.41,20.47-.56,8.29-.3,17.8-.31,26.09,0,2.74.1,25.4,5.11,20.27-3.79-2.32-4.03-18.49-4.9-20.86-6.62Z"/>
      <path class="cls-2" d="M757.54,1135.97c-3.22.37-7.42,8.92-13.51,10.58-7.02,1.92-7.58-3.29-8.06-9.01-1.66-19.77,4.34-67.37-3.52-82.47-10.58-20.33-45.59-13.26-61.76-3.88-4.08,2.36-16.15,11.28-15.73,16.31.59,7.2,13.17-2.04,15.84-3.2,11.68-5.05,26.78-9.31,38.94-3.57,3.81,1.8,5.87,9.92,6.27,13.77.73,7.11-.54,15.27,0,22.5-17.17-6.98-38.33-10.74-54.02,1.48-30.98,24.11-11.86,83.16,30.4,63.4,8.34-3.9,13.72-10.08,20.61-15.38,1.01-.78,1.26-1.93,3.01-1.49v14.5c0,.24,1.96,3.8,2.31,4.19,8.69,9.45,33.54-8.79,39.12-16.75,2.02-2.88,6.65-11.72.1-10.98ZM715.48,1134.99c-1.05,2.3-10.54,9.38-13.18,10.82-12.74,6.97-28.11,7.15-32.63-8.98-3.91-13.95-.93-33.9,16.06-36.58,4.09-.65,10.35-.51,14.5.01,3.19.41,15.2,3.2,15.77,6.23.52,2.76.28,26.71-.53,28.49Z"/>
      <path class="cls-2" d="M1477.38,1136.09c-5.57-1.77-16.33,19.98-22.93,6.97-2.11-23.39,1.28-48.31-.46-71.53-2.35-31.33-27.02-34.34-52.76-25.78-6.83,2.27-28.98,13.38-28.28,21.76.6,7.19,14.17-2.77,17.06-3.98,10.7-4.49,36.35-11.06,41.79,3.2.52,1.35,2.21,7.83,2.21,8.79v21.5c-21.53-8.76-46.62-11.2-62,9.5-11.83,15.92-9.75,45.06,8.29,55.7,19.39,11.43,39.91-5.78,53.71-18.21v15.5c0,.34,1.55,3.53,1.98,4.02,7.5,8.77,27.81-4.95,34.05-10.99,2.29-2.21,12.92-14.69,7.35-16.46ZM1433.48,1133.99c-.43.95-8.19,8.45-9.55,9.45-10.38,7.69-29.56,11.43-35.42-3.44-5.61-14.23-2.89-37.06,15.25-39.73,4.23-.62,10.23-.55,14.48,0,3.19.41,15.2,3.2,15.77,6.23.51,2.73.28,25.7-.53,27.49Z"/>
      <path class="cls-2" d="M2059.92,1136.08c-4.62-3.27-17.08,20.15-23.71,7.22-1.38-22.32,1.1-45.62-.17-67.82-.37-6.39-1.08-15.26-4.22-20.78-13.38-23.52-60.69-10.84-74.34,7.3-4.27,5.67-3.26,9.88,4.26,7.25,13.58-4.75,19.02-12.29,36.75-11.21,22.46,1.36,16.38,22.75,17.51,38.97-18.02-7.18-39.86-11.02-55.94,2.58-18.15,15.34-19.14,53.75,4.92,63.95,19.6,8.31,37.27-7.57,51.03-19.53v16.5c0,.55,2.27,3.46,3.02,3.98,6.93,4.82,19.84-1.65,25.91-6.05,3.32-2.4,20.44-18.51,14.99-22.36ZM2015.48,1133.99c-.42.93-8.22,8.48-9.55,9.45-10.21,7.44-28.8,11.54-35.12-2.74-5.96-13.49-3.56-37.52,13.92-40.45,4.17-.7,11.25-.52,15.51.02,3.18.4,15.2,3.2,15.77,6.23.51,2.73.28,25.7-.53,27.49Z"/>
      <path class="cls-2" d="M1075.5,1045.02l-45.03-.07c-2.59.02-2.5,3.73-1.52,5.34,1.93,3.15,10.83,3.55,13.08,5.21,3.04,2.24-2.48,24.05-3.51,28.53-4.71,20.59-12.27,40.23-19.52,59.98l-2.22-1.28-29.75-86.23c5.99-2.44,17.47-2.37,15.99-11.48-12.53.27-24.97,1.39-37.55,1.05-3.45-.09-17.18-3.09-18.38.57-2.63,8,16.32,6.94,18.76,11.05l40,111.08c.51,3.08-7.23,17.55-9.31,21.26-2.38,4.25-5.85,7.48-7.52,9.98-.2.31-.03,2.2-.93,3.52-11.15,16.25-6.08-.12-18.67-.42-21.19-.51-19.81,39.96,5.63,33.43,11.04-2.83,21.09-26.67,25.97-36.52,22.81-46.02,42.42-93.45,59.57-141.92,2.81-4.49,16.84-3.72,17.47-9.6.22-2.03-.46-3.29-2.54-3.46Z"/>
      <path class="cls-2" d="M405.54,1041.98c-50.34-3.96-86.99,39.59-74.46,88.45,11.12,43.37,67.18,46.66,96.57,20.22,34.17-30.73,31.46-104.46-22.11-108.67ZM408.32,1152.83c-13.06,7.99-31.92,6.9-42.97-4.17-22.29-22.33-21.27-86.48,14.2-96.58,56.35-16.05,61.23,80.88,28.76,100.75Z"/>
      <path class="cls-2" d="M1795.38,1042.14c-81.81-8.28-82.94,133.18-4.16,123.59,16.04-1.95,33.72-17.47,39.8-32.19.82-1.99,3.59-11.86-2.02-9.08-2.23,1.11-7.58,10.38-9.98,13.08-10.53,11.84-24.34,14.87-39.3,9.25-17.61-6.62-26.78-31.1-25.73-48.77h80v-15.5c0-20.07-19.18-38.41-38.62-40.37ZM1812,1088.02c-19.25,2.43-38.61,2.1-58.01,2,.38-13.65,5.87-32.21,19.32-38.19,24.89-11.07,40.86,13.74,38.69,36.19Z"/>
      <path class="cls-2" d="M2680.75,1136.16c-3.79.77-11.57,10.63-19.33,11.76-15.25,2.22-20.35-5.29-21.45-19.37-1.77-22.63,1.59-46.87,1.03-69.53l41,1.01v-13c-13.52,2.57-27.29,2-41,2l2.86-70.35c-1.11-3.36-6-.72-8.36-.65-4.53.13-9.03-.59-13.49,0v70.99c-8.5.32-16.74.05-24.99-2l-.02,12.45,25.02-.46-2.05,73.54c1.39,11.32,2.46,26.32,14.52,31.48,16.86,7.2,37.75-4.71,47.52-18.52,2.27-3.21,5.09-10.63-1.25-9.35Z"/>
      <path class="cls-2" d="M1914,1146.51c-17.38,6.99-24.93-4.06-26.04-19.95-1.55-22.19,2.02-45.29,1.04-67.54l41.02.44-.02-12.43c-13.52,2.56-27.28,2-41,2l3-71h-22l.86,69.35c-.82,2.49-11.71,1.87-14.4,1.67-3.91-.29-7.58-1.7-11.46-2.03v13c8.24-1.54,16.64-.9,25-1.01-.72,16.51-.72,33.01-.96,49.54-.04,2.36-1.05,4.55-1.08,6.92-.29,24.17.93,58.77,35.48,49.48,7.63-2.05,29.69-17.09,29.53-25.47-.18-9.37-15.38,5.57-18.98,7.02Z"/>
      <path class="cls-2" d="M2874.52,1122.02c-2.81.6-3.96,10.41-5.67,13.34-5.69,9.79-30.56,17.61-41.35,18.65-7.16.69-15.23-.51-22.5,0,11.03-18.49,22.57-36.85,35.19-54.31,10.68-14.78,26.4-30.7,35.64-45.34,3.79-6,1.04-7.68-5.28-8.38-24.4,2.37-52-1.11-75.96,2.14-13.49,1.83-14.37,16.43-13.58,27.4.23,3.18.48,10.25,4.37,9.39,2.39-.53,2.81-6.92,3.86-9.14,7.48-15.88,42.97-21.13,58.77-20.72l-72.01,103.57c-.46,7.78,19.73,3.45,24.47,3.36,17.88-.34,37.54,1.34,55.08.08,12.46-.9,18.65-4.01,21.2-16.8.7-3.49,3.41-24.43-2.22-23.23Z"/>
      <path class="cls-2" d="M567.35,1085.17c-15.85-4.47-12.66-23.81-.4-29.71,12.71-6.11,30.8-.78,41.38,7.73,10.44,8.39,3.7,15.12,8.23,22.76,1.22,2.05,4.31,2.47,5.3.91l1.21-49.41c-5.11-3.64-7.21,7.4-8.08,10.57-34.49-14.3-73.08-3.21-67.88,40.38,2.09,17.53,19.67,24.08,34.68,27.31,9.51,2.05,30.66,1.57,33.52,12.48,6.54,24.96-25.49,26.71-42.1,21.1-2.89-.98-15.58-7.28-16.71-9.29-2.25-4.01.19-26.12-6.97-23.98-1.37.41-1.45,2.25-1.58,3.44-1.01,8.71,1.29,18.16,1.04,27.04-.2,6.93-3.4,18.03-3.08,24.01.62,11.64,10.55-2.97,9.1-8.51,32.83,12.52,75.05-2.12,71.97-42.48-2.43-31.8-37.97-28.25-59.63-34.36Z"/>
      <path class="cls-2" d="M2128.01,1090.51c-9.31-2.48-27.16-3.15-34.28-6.72-9.5-4.76-6.72-20.78.69-26.36,10.66-8.03,27.33-4.45,38.25,1.42,2.55,1.37,10.85,6.9,11.82,9.18,1.42,3.37.61,20.81,5.9,19.93,5.08-.84,1.53-18.24,1.56-22.48.03-4.25,3.67-26.02,2.61-27.52-4.04-5.74-8.44,7.07-8.57,10.06-18.99-7.22-44.6-10.48-59.64,6.35-10.46,11.71-12.7,36.69-1.75,48.54,14.73,15.94,40.82,10.65,57.13,18.83,6.88,3.45,6.36,16.45,1.79,22.3-10.48,13.41-37.43,7.93-50.19.14-12.59-7.68-4.61-14.51-8.57-25.43-1.7-4.68-6.32-2.97-6.75,1.86.38,6.96,2.06,16.18,1.99,22.9-.09,8.46-3.08,18.95-3.06,27.02,0,2.22-.27,4.37,2.75,4.27,4.24-.13,5.4-9.79,6.33-12.8,27.37,9.3,62.72,4.12,70.52-27.96,6.01-24.73-5.8-37.48-28.53-43.53Z"/>
      <path class="cls-2" d="M829.78,1090.74c-9-2.5-36.06-3.87-40.2-10.8-4.69-7.83-.13-19.17,7.08-23.76,10.61-6.75,27.04-2.41,37.37,3.31,1.38.76,9.58,6.31,10.04,6.96,2.61,3.71.59,23.59,7.39,21.56,1.37-.41,1.45-2.25,1.58-3.44,1.02-8.81-.55-19.88-.09-29.09.18-3.54,3.64-16.24,1.11-18.02-5.91-4.17-6.12,10.19-8.54,10.42-33.48-14.63-73.02-2.03-67.27,40.38,3.5,25.79,33.4,26.01,52.79,30.21,11.03,2.38,17.6,4.97,15.97,18.08-2.26,18.17-29.67,17.19-42.8,12.75-2.84-.96-15.95-7.61-17-9.49-1.39-2.48-.48-15.65-2.25-20.26-1.67-4.37-5.39-5.44-6.02-.08-1.11,9.61,1.67,20.75,1.04,31.04-.37,5.95-3.14,14.72-3.04,20.06.22,11.27,10.89-2.58,9.06-8.55,19.04,5.29,39.49,7.28,56.21-5.04,15.24-11.23,22.53-41.14,8.43-55.59-4.74-4.86-14.31-8.82-20.86-10.64Z"/>
      <path class="cls-2" d="M1577.37,1044.14c-16.49-8.07-29.13,10.2-36.19,22.56l-7.19,15.31v-32.5c0-2.25-2.29-8.35-5.3-8.3-2.38.04-17.5,6.8-21.91,8.09-3.99,1.17-20.53,1.88-16.31,8.73,2.22,3.61,17.94-.35,22.54.98-.59,3.61.81,6.97,1.04,10.46,1.16,18.08,2.28,59.94-.31,76.76-.2,1.29-.79,4.72-1.67,5.32-.57.39-10.79,1.98-13.27,2.73-3.03.92-12.54,3.35-8.85,8.05,2.45,3.12,17.22-.23,21.53-.38,11.21-.37,23.89-.41,35.09,0,3.23.12,27.77,5.38,21.98-3.97-3.24-5.23-27.31-5.9-33.47-7.03-.12-20.54-2.84-71.18,15.91-84.48,10.03-7.11,10.95,3.22,16.98,5.09,16.81,5.22,23.66-20.46,9.43-27.42Z"/>
      <path class="cls-2" d="M2588.95,1044.57c-12.24-7.94-25.69,3.61-32.36,13.54l-12.59,22.91v-33.5c0-1.26-2.5-6.42-4.44-6.47-2.84-.08-13.43,5.48-17.35,6.69-4.97,1.54-15.99,2.73-19.5,4.5-4.29,2.18-3.15,7.68,1.87,7.78,1.47.03,2.57-1,2.91-1h15.5c2.06,21.67,2.77,43.72,2.04,65.54-.08,2.36-.96,4.55-1.08,6.92-.24,4.8,1,13.93-.16,17.84-1.46,4.93-28.79,3.84-23.33,12.71,2.21,3.6,16.65.1,20.99-.06,11.16-.4,23.93-.41,35.09,0,5.4.19,13,2.18,18,2.1,3.34-.05,5.81-3.14,3.98-6.07-3.13-5.03-27.38-6.19-33.52-6.99.3-21.91-2.85-65.82,13.95-82.52,10.88-10.82,12.54,1.41,19.78,3.29,16.23,4.22,22.17-19.44,10.21-27.2Z"/>
      <path class="cls-2" d="M2741.95,1150.36l-2.2-109.08-3.79-.83c-7.3,3.28-14.46,6.58-22.18,8.86-4.55,1.34-19.91,1.56-16.31,8.71,1.89,3.75,4.74,1.03,6.02,1,5.16-.09,10.35.07,15.5,0,2.16,22.3,2.79,45.07,2.04,67.54-.08,2.36-.95,4.55-1.08,6.92-.24,4.17,1.54,16.2-1.98,18.02-3.57,1.84-23.95,2.83-21.91,9.89,1.36,4.72,18.17.74,22.39.58,8.29-.3,17.8-.31,26.09,0,5.17.19,20.45,5.11,20.56-2.47-1.31-5.64-22.7-7.13-23.15-9.14Z"/>
      <path class="cls-2" d="M2417,934.03c-39.77-18.02-91.21-8.52-121,23-63.5,67.17-35.94,205.63,67.46,211.02,126.83,6.61,158.66-186.4,53.54-234.02ZM2430.91,1137.43c-85.72,64.8-193.36-82.25-136.54-164.53,4.07-5.9,14-17.35,20.63-18.87,1.28-4.26,10.25-7.74,14.32-9.18,15.38-5.46,30.14-5.26,45.68-1.82,77.25,17.09,124.6,142.47,55.91,194.4Z"/>
      <path class="cls-2" d="M2293,725.05c5.74-16.14,5.92-22.41,18.99-34.51,20.04-18.56,44.21-34.24,65.49-51.51,96.8-78.57,198.68-159.38,251.38-275.59,16.07-35.43,33.73-106.09,37.01-144.98.94-11.18-.91-22.23-.88-33.36l-20.17,31.31c-38.24,48.59-73.57,99.59-111.86,148.13-62.76,79.56-137.44,148.52-188.37,237.6l-26.57,43.91c5.64-24.75,13.6-48.89,18.68-73.8,28.32-138.92,29.11-294.85-7.97-432.36-11.93-44.23-41.92-133.76-95.72-139.77-3.15-.35-6.77.25-10,0l-12.26,3.24c-54.74,17.88-103.04,115.2-125.92,165.07-5.78,12.6-11.43,25.55-15.83,38.67-4.97-.9-9.67-3.23-14.76-3.72-20.06-1.93-37.39,13.18-47.03,29.41-2.24,3.77-15.94,32.91-16.19,35.3-.11,1.02,1.04,2.61,1,3,5.65.73,11.65,3.06,17,5,3.8,1.38,5.77,3.37,7,4,5.94,3.06,20.06,7.37,28,11,1.4.64,3.05.48,6,2,10.86,5.6,20.35,13.75,30.99,20,6.02-23.85,21.52-43.77,19-69.48-1.51-15.45-12.15-28.89-26.99-33.52,17.45-37.07,36.1-74.44,58.58-108.89,22.32-34.21,74.76-107.99,121.74-71.91,42.21,32.42,59.49,140.5,65.54,191.44,9.7,81.62,11.2,170.94,4.12,252.84-7.22,83.62-38,167.86-62.99,247.48l-9.02,29h-2.98c.24-9.15.43-18.43.96-27.58.08-1.3,1.03-2.27,1.04-2.42,5.38-88.36-.35-174.41-23.28-260.19-9.75-36.48-23.45-72.98-32.42-109.57-7.74-31.56-14.15-66.9-19.98-99.01-5.81-31.98-9.46-64.39-16.33-96.17-1.61.86-2.14,5.17-2.53,6.96-4.44,20.73-11.08,44.28-14.36,64.64-10.44,64.84-13.05,144.62-9.12,209.89,5.68,94.13,53.58,194.8,91.01,280.46,7.48,17.13,15.71,34.67,18.93,53.35l-63.53,178.62c-1.78,3.54,7.62,12.51,10.12,12.99,2.84.54,10.66.93,11.7-2.25,26.07-61.86,53.37-123.4,76.52-186.46,5.84-15.9,10.58-32.29,16.26-48.24Z"/>
      <path class="cls-2" d="M1266.58,871.95c57.88,16.38,136.74,6.86,178.45-40.39,4.3-4.87,15.31-18.62,1.68-17.33-38.23,38.25-88.5,51.5-140.92,36.51-92.58-26.47-142.9-148.39-119.5-236.91,29.81-112.74,165.47-117.75,243.79-52.36,3.8,19.71,3.99,40.09,7.07,59.93.9,5.79,3.49,25.67,10.42,26.67,4.41.63,5.14-1.88,5.5-5.47,1.01-10.27-1.8-21.7-2.1-32.01-1.25-42.49,1.14-84.82,5.97-126.97-.71-4.49-3.42-5.96-7.48-3.61-7.64,4.42-9.96,31.48-11.45,40.05-51.86-18.91-107.16-26.43-160.99-10.5-168.06,49.73-181.53,313.97-10.42,362.38Z"/>
      <path class="cls-2" d="M1884,611.06c-64.22-154.54-306.98-145.06-365.02,13.48-64.53,176.29,114.63,310.61,275.02,233.5,87.95-42.28,127.21-157.44,90-246.98ZM1801.3,837.84c-105.24,59.89-229.23-27.77-259.8-131.79-31.21-106.21,46.51-193.05,154.87-180.86,76.08,8.56,131.33,63.32,159.03,131.52,27.63,68.02,15.94,141.27-54.11,181.13Z"/>
      <path class="cls-2" d="M992,688.04l30.35-11.13c72.79-33.83,80.78-136.5-3.4-163.3-56.36-17.95-126.02-.12-185.45-3.55-12.57-.72-31.47-5.37-43.03-4.01-9.25,1.08-7.76,8.12-.49,11.54,12.02,5.64,31.05,4.7,44.06,7.94,1.62,1.14,1.74,14.59,1.96,17.54.79,10.52.68,20.02,1.01,30.49,2.63,84.5,4.6,179.36-1.01,263.49-.4,5.97-.35,12.04-.99,18-9.4.52-19.09,1.51-28.35,3.15-4.44.79-13.98,2.19-17.66,3.84-5.95,2.67-5.52,6.87-3,12,9.72-2.31,32.53-3.36,43.51-3.99,64.53-3.69,134.67,16.19,195.17-9.83,43.59-18.75,71.16-59.76,60.83-108.17-8.85-41.48-54.4-62.9-93.5-64ZM882.18,525.25c39.24-9.98,84.21-11.7,119.73,10.4,28.32,17.62,40.76,48.91,35.95,81.77-10.67,72.85-102.83,69.88-158.87,67.63l-.04-110.54,3.22-49.27ZM882.14,854.9c-1.13-14.74-1.62-29.55-2.15-44.35-.07-1.92-.97-3.84-1.03-5.97-1.06-35.44.88-71.09.04-106.54,35.12-.19,70.81-1.3,104.77,8.74,30.57,9.04,54.76,27.73,57.27,61.72,6.69,90.45-91.5,102.32-158.9,86.39Z"/>
    </g>
    <g>
      <path class="cls-1" d="M2260,721.05l-10-1c0,.15-.97,1.12-1.04,2.42-.53,9.15-.72,18.43-.96,27.58h2.98s9.02-29,9.02-29Z"/>
      <path class="cls-1" d="M1563.18,592.74c-43.14,61.56-13.45,140.84,34.17,189.95,50.43,52.01,128.8,75.52,191.96,30.16,89.21-64.06,39.42-192.16-37.79-242.82-58.47-38.36-145.44-38.51-188.34,22.71Z"/>
      <path class="cls-1" d="M1839.51,540.1c1.83,0,4.71-4.71,8.47-3.06,10.19-54.65,18.35-113.92,47.21-162.27,13.23-22.16,30.51-41.22,48.26-59.74,4.71-6.62,48.23-40.69,48.55-43.95.04-.39-1.11-1.98-1-3-13.85,2.62-24.63,10.57-35.47,19.03-75.02,58.52-116.52,147.16-120.51,242.46-.13,3.13-.37,10.56,4.49,10.53Z"/>
      <path class="cls-1" d="M1899.98,423.56c-10.75,29.52-24.77,78.06-27.02,108.97-.38,5.27-.65,43.58.54,45.53,2.08,3.38,5.65,2.99,7.55-.44,1.11-2,.69-3.85,1.49-5.51,2.17-4.55,26.91-17.22,32.77-21.23,17.81-12.19,32.69-31.39,47.68-46.81-3.99,17.78-15.22,61.33,3.06,73.45,11.99,7.95,16.64,1.97,24.47-6.44,52.13-55.98,88.82-153.41,92.48-229.5.26-5.31,1.65-20.39-3.5-22.48-2.05-.83-1.41,1.37-1.49,2.48-4.52,64.78-42.5,187.93-86.97,236.02-2.49,2.69-12.1,12.8-15.54,10.57-11.31-7.35-10.18-31.59-9.48-43.58.39-6.64,3.57-18.43,3.11-24.06-.18-2.2-2.5-1.12-2.12-1.95,25.21-31.3,48.77-66.35,64.46-103.53,13.55-32.11,23.09-66.78,18.53-101.96-2.95-1.52-4.6-1.36-6-2,.28,76.83-42.78,144.21-92.65,198.87-20.44,22.41-43.57,44.05-66.34,64.11,11.88-80.62,30.65-164.56,84.02-228.45,14.03-16.8,30.64-31.11,46.97-45.52-1.23-.63-3.2-2.62-7-4-3.69,3.74-8.92,5.13-13.33,8.17-42.11,29.03-78.46,91.99-95.69,139.3Z"/>
      <path class="cls-1" d="M1631,1200c.33,8.9,1.59,17.96,2.13,26.86.98,1.65,30.76,2.84,33.4,7.11,5.82,9.4-18.91,4.1-21.99,3.99-10.82-.39-23.27-.41-34.09,0-3.94.15-21.7,3.5-23.32.92-3.03-11.32,18.91-8.07,21.71-12.53,1.57-2.5,2.02-21.77,2.15-26.34h-610c-4.88,9.85-14.93,33.69-25.97,36.52-25.44,6.53-26.82-33.94-5.63-33.43,12.59.3,7.51,16.67,18.67.42.9-1.32.73-3.21.93-3.52H0s82,53,82,53h2871l52.99-52.99h-1374.99Z"/>
      <path class="cls-1" d="M901.54,502.11c40.87-1.68,78.38-8.72,119.49.42,52.9,11.77,85.25,46.94,80.95,103.01-2.52,32.93-24.22,60.59-50.98,78.01,8.38,4.06,16.76,8.14,24.31,13.68,44.83,32.92,44.93,95.56,11.69,136.79l105.99,5c1.33-1.17-10.67-11.99-11.97-13.52-66.44-78.12-55.5-211.57,19.45-280.47,61.04-56.12,145.72-63.19,222.52-37.97,2.35-14.96,8.39-36.42,27.49-35.03,14.65,1.07,17.28,14.37,16.51,26.51-2.29,35.84-7.23,68.32-6.03,105.04.41,12.55,3.33,27.79,3.08,39.91-.47,22.53-29.83,27.78-39.22,4.23-8.73-21.9-5.93-51.66-11.38-74.61-54.63-42.88-145.12-53.29-190.25,8.62-41.74,57.26-20.33,155.6,22.84,206.77,39.82,47.2,110.13,65.05,163.88,29.94,10.4-6.79,24.83-24.43,37.3-23.2,9.35.92,16.79,8.72,16.79,18.29,0,16.2-30.28,38.89-43.08,46.91-5.91,3.7-12.75,6.25-17.92,10.57,175.06,36.3,349.61,78.43,528.51,92.99,89.09,7.25,192.16,10.77,280.98,3,27.89-2.44,55.64-7.39,83.51-9.99,29.79-31.52,81.23-41.01,121-23,27.29-8.16,54.62-16.09,81.25-26.25,82.73-31.57,174.67-87.19,238.27-148.69,3.22-3.11,8.44-7.71,10.99-11.04.77-1,1.94-1.27,1.49-3-17.5.35-35.02.57-52.54.95-51.87,1.13-103.22,1.18-154.97-.95-83.12-3.42-165.89-10.83-248.49-20.01-5.68,15.95-10.42,32.34-16.26,48.24-23.15,63.07-50.45,124.6-76.52,186.46-1.04,3.18-8.87,2.79-11.7,2.25-2.5-.48-11.91-9.45-10.12-12.99l63.53-178.62c-3.23-18.68-11.45-36.22-18.93-53.35-56.6-13.97-113.09-28.45-168.77-45.73-57.54-17.86-114.02-38.77-170.23-60.26,37.21,89.54-2.05,204.69-90,246.98.11,2.36-4.4,4.49-6.11,5.39-60.58,32.18-143.92,30.78-203.91-1.87-140.39-76.4-124.46-285.04,16.66-349.35l24.35-10.13c-40.87-15.82-81.31-32.9-122.45-48.05-24.78-9.12-56.56-22.17-81.5-28.5-99.96-25.34-217.67-28.75-319.22-11.15-79.18,13.73-156.04,42.64-222.81,87.18,7.4.64,15.1.84,22.54.54Z"/>
      <path class="cls-1" d="M508,996.02c71.9-41.58,147.91-77.56,226.48-105.01,15.65-5.47,35.81-13.24,51.52-16.98-2.52-5.13-2.95-9.33,3-12,.8-22.17,30.35-23.54,47-25,5.61-84.13,3.64-178.98,1.01-263.49-.33-10.46-.22-19.97-1.01-30.49-3.4-.93-8.68-2.64-11.94-1.48-92.21,75.28-163.55,173.62-225.47,274.54-31.8,51.82-58.82,104.03-87.73,157.26-.76,1.4-1.15,3.01-2.85,3.64-.04,5.81.03,12.79,0,19Z"/>
      <path class="cls-1" d="M1033.88,618.44c11.25-71.43-67.94-90.93-122.75-76.24-3.71,42.79-1.57,85.91-2.14,128.86,43.03.58,116.09,3.25,124.88-52.62Z"/>
      <path class="cls-1" d="M1037.04,767.51c-.99-13.04-6.47-25.56-16.46-34.03-27-22.9-78.13-21.87-111.58-22.43l-.04,98.54,2.17,27.32c52.74,9.89,131.31,1.83,125.91-69.4Z"/>
    </g>
  </g>
</svg>